<?xml version="1.0" encoding="UTF-8"?>
<svg version="1.1" xmlns="http://www.w3.org/2000/svg" width="336" height="276">
<path d="M0 0 C110.88 0 221.76 0 336 0 C336 91.08 336 182.16 336 276 C225.12 276 114.24 276 0 276 C0 184.92 0 93.84 0 0 Z " fill="#171A24" transform="translate(0,0)"/>
<path d="M0 0 C4.56417808 3.8737982 5.1306138 9.31326147 6 15 C6.22671646 18.08540494 6.29877237 21.15681419 6.3125 24.25 C6.32059692 25.36580444 6.32059692 25.36580444 6.32885742 26.50415039 C6.16305927 39.48975027 0.85395881 49.69234454 -8 59 C-19.01604225 69.13604147 -31.82109979 76.1129795 -45.3125 82.375 C-58.42814422 88.46337013 -71.17360505 95.29709887 -82 105 C-82.96292969 105.84111328 -82.96292969 105.84111328 -83.9453125 106.69921875 C-93.41410426 115.49166824 -96.4194097 125.76496597 -99 138 C-107.34429415 130.28637924 -110.39898738 118.24589308 -111.1953125 107.3203125 C-111.75320531 93.00106377 -106.00743338 82.33416672 -96.5 72 C-85.49226681 61.66378955 -71.82771257 55.12171194 -58.3125 48.75 C-56.69935626 47.98024194 -55.08672389 47.20941127 -53.47460938 46.4375 C-50.38265028 44.95795308 -47.2893689 43.48123473 -44.19506836 42.0065918 C-25.11725634 32.89538552 -8.36347293 23.0656774 -0.625 2.3125 C-0.41875 1.549375 -0.2125 0.78625 0 0 Z " fill="#63B7CE" transform="translate(216,72)"/>
<path d="M0 0 C0.66 0 1.32 0 2 0 C10.17041449 15.16114346 10.17041449 15.16114346 11 24 C11.08121094 24.73476563 11.16242188 25.46953125 11.24609375 26.2265625 C11.89813622 37.41007872 5.97502974 46.88508122 -0.82421875 55.2421875 C-7.36510076 62.44338712 -15.46611851 66.60348247 -24 71 C-24.89976562 71.47179687 -25.79953125 71.94359375 -26.7265625 72.4296875 C-30.924591 74.57784255 -35.19591054 76.55561148 -39.47705078 78.53198242 C-40.12399902 78.83080322 -40.77094727 79.12962402 -41.4375 79.4375 C-42.07800293 79.73309814 -42.71850586 80.02869629 -43.37841797 80.33325195 C-48.27209699 82.6119452 -53.02073546 85.09764738 -57.73046875 87.73828125 C-59.20597582 88.55857176 -60.70908286 89.33164783 -62.23828125 90.046875 C-64.54228597 91.29338753 -64.87414772 92.67792967 -66 95 C-68.125 96.75 -68.125 96.75 -70 98 C-70.49581183 84.61308068 -66.72121754 73.17649227 -57.9375 62.875 C-48.73357447 53.29074697 -37.50836053 46.18842868 -26.42285156 38.99707031 C-13.78216099 30.73911823 -5.14734339 21.9486663 -1 7 C-0.51692778 4.64195255 -0.2134658 2.40149028 0 0 Z " fill="#665ECF" transform="translate(201,27)"/>
<path d="M0 0 C0.33 0 0.66 0 1 0 C1.49921735 14.40334494 0.68913271 26.88264868 -8 39 C-8.60908203 39.90105469 -8.60908203 39.90105469 -9.23046875 40.8203125 C-19.26476554 54.09645902 -36.74984084 60.52131073 -51.39208984 67.06982422 C-67.99867611 74.5126817 -83.64290176 82.664218 -91.03515625 100.3359375 C-92.31245697 103.86273545 -93.23791245 107.32812361 -94 111 C-94.33 111 -94.66 111 -95 111 C-95.95916312 90.19058711 -92.06821928 77.23457578 -78.01953125 61.828125 C-68.03189409 52.1793897 -54.70742243 45.52880586 -42.75610352 38.67285156 C-32.93350286 33.03280234 -23.57093022 27.443866 -15 20 C-14.23945313 19.3503125 -13.47890625 18.700625 -12.6953125 18.03125 C-7.72167783 13.45175241 -4.56491482 8.26526463 -1.34765625 2.34375 C-0.90292969 1.5703125 -0.45820313 0.796875 0 0 Z " fill="#4985C2" transform="translate(222,127)"/>
<path d="M0 0 C1.01765083 12.77717159 -3.48615006 23.22179098 -11.58984375 32.8984375 C-21.55503493 43.63739646 -37.61423207 50.35397973 -52.171875 51.11328125 C-53.78166395 51.12293998 -55.39170149 51.06992602 -57 51 C-57.55373586 39.55612557 -54.69665617 30.65873819 -47 22 C-40.01990223 15.5932674 -31.88142493 12.85947796 -23 10 C-17.27247811 8.09082604 -5.30480453 0 0 0 Z " fill="#72C4A0" transform="translate(190,201)"/>
<path d="M0 0 C0.33 0 0.66 0 1 0 C1.16340891 10.5515465 -3.64845991 18.78443348 -10.8125 26.3125 C-18.02222587 33.01119166 -26.46020531 37.92637668 -34.82421875 43.02734375 C-47.13475095 50.67410729 -59.21309435 59.09113705 -64.75 73.0625 C-65.36875 74.5165625 -65.36875 74.5165625 -66 76 C-67.485 76.495 -67.485 76.495 -69 77 C-67.33712615 63.94548461 -58.25064644 54.19624925 -48.3125 46.3125 C-41.59116844 41.19922071 -34.50491606 36.59118708 -27.4230957 31.99731445 C-16.01719625 24.54565985 -7.92562594 16.73914265 -2.82421875 3.8125 C-2 2 -2 2 0 0 Z " fill="#7A6BD3" transform="translate(202,34)"/>
<path d="M0 0 C0.495 0.99 0.495 0.99 1 2 C-6.1442415 19.56292703 -27.12892191 29.50287613 -43.01171875 38.2109375 C-55.01516841 44.79627384 -66.72276191 51.75583851 -76 62 C-78.62666857 64.68636558 -80.87378541 66.91585694 -84 69 C-77.27247237 50.12275829 -55.62986351 40.14273874 -39.40625 30.76171875 C-17.28033649 18.26339808 -17.28033649 18.26339808 0 0 Z " fill="#5492C5" transform="translate(217,136)"/>
<path d="M0 0 C1.32 0.33 2.64 0.66 4 1 C4 1.99 4 2.98 4 4 C4.66 4.66 5.32 5.32 6 6 C5.319375 7.485 5.319375 7.485 4.625 9 C2.93307285 12.92110131 1.94856099 16.84092487 1 21 C0.67 21 0.34 21 0 21 C0 14.07 0 7.14 0 0 Z " fill="#4585B7" transform="translate(127,217)"/>
<path d="M0 0 C1.32 0 2.64 0 4 0 C3.34 3.3 2.68 6.6 2 10 C2.99 10 3.98 10 5 10 C2.03 12.475 2.03 12.475 -1 15 C-1.09038099 9.84828377 -0.84681133 5.08086796 0 0 Z " fill="#485AB5" transform="translate(132,110)"/>
<path d="M0 0 C0.66 0.33 1.32 0.66 2 1 C-1.75 7.875 -1.75 7.875 -4 9 C-4.2165625 9.99 -4.2165625 9.99 -4.4375 11 C-4.623125 11.66 -4.80875 12.32 -5 13 C-5.99 13.33 -6.98 13.66 -8 14 C-7.54738642 12.56068883 -7.08767021 11.12361001 -6.625 9.6875 C-6.36976563 8.88699219 -6.11453125 8.08648437 -5.8515625 7.26171875 C-4.51547163 3.71311044 -3.16458258 2.10972172 0 0 Z " fill="#427CB5" transform="translate(136,202)"/>
<path d="M0 0 C1.32 0.33 2.64 0.66 4 1 C4 1.99 4 2.98 4 4 C4.66 4.66 5.32 5.32 6 6 C5.01 7.32 4.02 8.64 3 10 C1.5 8.9375 1.5 8.9375 0 7 C-0.1875 3.3125 -0.1875 3.3125 0 0 Z " fill="#4077B1" transform="translate(127,217)"/>
<path d="M0 0 C0 3.73928499 -0.91959602 4.40902253 -3.375 7.125 C-4.31472656 8.18074219 -4.31472656 8.18074219 -5.2734375 9.2578125 C-7 11 -7 11 -9 12 C-8.45015228 8.12488273 -6.72444669 6.40423494 -3.9375 3.75 C-3.20402344 3.04359375 -2.47054687 2.3371875 -1.71484375 1.609375 C-1.14894531 1.07828125 -0.58304688 0.5471875 0 0 Z " fill="#67AAE0" transform="translate(215,141)"/>
<path d="M0 0 C1.5 1.375 1.5 1.375 3 3 C3 3.66 3 4.32 3 5 C3.66 5 4.32 5 5 5 C5 6.65 5 8.3 5 10 C2.03134491 7.45543849 0.6380249 4.51005335 -1 1 C-0.67 0.67 -0.34 0.34 0 0 Z " fill="#54B6AF" transform="translate(112,200)"/>
<path d="M0 0 C0.433125 0.495 0.86625 0.99 1.3125 1.5 C2.99740483 3.33218192 2.99740483 3.33218192 6 3 C3.03 5.475 3.03 5.475 0 8 C0 5.36 0 2.72 0 0 Z " fill="#33448D" transform="translate(131,117)"/>
</svg>
