<svg
  width="380"
  height="280"
  viewBox="0 0 380 280"
  fill="none"
  xmlns="http://www.w3.org/2000/svg"
>
  <!-- Gradients -->
  <defs>
    <linearGradient id="boardGrad" x1="0" y1="0" x2="0" y2="1">
      <stop offset="0%" stop-color="var(--container-color)" />
      <stop offset="100%" stop-color="rgba(0,0,0,0.03)" />
    </linearGradient>

    <filter id="softShadow" x="-20%" y="-20%" width="140%" height="140%">
      <feGaussianBlur in="SourceAlpha" stdDeviation="6" />
      <feOffset dx="0" dy="6" />
      <feColorMatrix
        type="matrix"
        values="0 0 0 0 0
                0 0 0 0 0
                0 0 0 0 0
                0 0 0 0.18 0"
      />
      <feMerge>
        <feMergeNode />
        <feMergeNode in="SourceGraphic" />
      </feMerge>
    </filter>
  </defs>

  <!-- Ambient Shadow -->
  <ellipse cx="190" cy="245" rx="140" ry="14" fill="rgba(0,0,0,0.08)" />

  <!-- Board -->
  <rect
    x="40"
    y="30"
    width="300"
    height="190"
    rx="22"
    fill="url(#boardGrad)"
    stroke="var(--first-color)"
    stroke-width="1.5"
    filter="url(#softShadow)"
  />

  <!-- Top Bar -->
  <rect x="40" y="30" width="300" height="34" rx="22" fill="rgba(0,0,0,0.04)" />
  <circle cx="65" cy="47" r="4" fill="var(--error-icon)" />
  <circle cx="80" cy="47" r="4" fill="var(--warning-icon)" />
  <circle cx="95" cy="47" r="4" fill="var(--success-icon)" />

  <!-- Column Headers -->
  <rect x="60" y="76" width="70" height="14" rx="7" fill="var(--first-color-light)" />
  <rect x="155" y="76" width="70" height="14" rx="7" fill="var(--first-color-light)" />
  <rect x="250" y="76" width="70" height="14" rx="7" fill="var(--first-color-light)" />

  <!-- Column Separators -->
  <line x1="145" y1="76" x2="145" y2="200" stroke="rgba(0,0,0,0.08)" />
  <line x1="240" y1="76" x2="240" y2="200" stroke="rgba(0,0,0,0.08)" />

  <!-- Column Backgrounds -->
  <rect x="60" y="100" width="70" height="100" rx="12" fill="rgba(0,0,0,0.03)" />
  <rect x="155" y="100" width="70" height="100" rx="12" fill="rgba(0,0,0,0.03)" />
  <rect x="250" y="100" width="70" height="100" rx="12" fill="rgba(0,0,0,0.03)" />

  <!-- Task Cards -->
  <g>
    <rect x="66" y="110" width="58" height="20" rx="7" fill="var(--card-color)" />
    <rect x="66" y="110" width="58" height="4" rx="2" fill="rgba(255,255,255,0.4)" />
    <circle cx="118" cy="120" r="3" fill="var(--success-icon)" />

    <rect x="66" y="140" width="58" height="20" rx="7" fill="var(--card-color)" />
    <rect x="66" y="140" width="58" height="4" rx="2" fill="rgba(255,255,255,0.4)" />
    <circle cx="118" cy="150" r="3" fill="var(--warning-icon)" />
  </g>

  <g>
    <rect x="161" y="110" width="58" height="20" rx="7" fill="var(--gold-2)" />
    <rect x="161" y="110" width="58" height="4" rx="2" fill="rgba(255,255,255,0.4)" />
    <circle cx="213" cy="120" r="3" fill="var(--info-icon)" />

    <rect x="161" y="140" width="58" height="20" rx="7" fill="var(--gold-2)" />
    <rect x="161" y="140" width="58" height="4" rx="2" fill="rgba(255,255,255,0.4)" />
    <circle cx="213" cy="150" r="3" fill="var(--error-icon)" />
  </g>

  <g>
    <rect x="256" y="110" width="58" height="20" rx="7" fill="var(--success-icon)" />
    <rect x="256" y="110" width="58" height="4" rx="2" fill="rgba(255,255,255,0.4)" />
    <circle cx="308" cy="120" r="3" fill="var(--success-title)" />

    <rect x="256" y="140" width="58" height="20" rx="7" fill="var(--success-icon)" />
    <rect x="256" y="140" width="58" height="4" rx="2" fill="rgba(255,255,255,0.4)" />
    <circle cx="308" cy="150" r="3" fill="var(--info-icon)" />
  </g>

  <!-- Subtle Shine -->
  <path
    d="M50 44 H330"
    stroke="rgba(255,255,255,0.15)"
    stroke-width="1"
  />
</svg>
